<svg id="Layer_1" data-name="Layer 1" xmlns="http://www.w3.org/2000/svg" viewBox="0 0 100.62 101.62"><defs><style>.cls-1{fill:#040404;}.cls-2{fill:#d95608;}.cls-3{fill:#546a2a;}</style></defs><path class="cls-1" d="M151,262a22.79,22.79,0,0,1-19.3,1.62,44.76,44.76,0,0,1-6.65-3.4h0c-1.16-.83-2.16-2-3.29-2.75h0c-7.72-8.54-15.52-26-10.56-37.14h0c4.88.82,3.84,8.76,4.6,12.61-1.53.22-2.66-6.64-3.69-8.35a28.56,28.56,0,0,0,.74,12.37l.1,0c-.11-.54-.21-1.09-.31-1.63l.23,0a51.39,51.39,0,0,0,4.08,11A17.58,17.58,0,0,1,118,240h0c-.29,2-.87,4-.55,6.1.23-2.25.32-4.33,1.52-6.37a13.94,13.94,0,0,0-.81,5.21,26.81,26.81,0,0,1,4.29-8.44h0a47.31,47.31,0,0,1,11.17-9.61c5-2.69,10.27-5.37,15.89-6.3l-.74.45a14.27,14.27,0,0,1,2.61-.23l0,0c1,.19-.4,1,.37,1.3l0,.39a11.74,11.74,0,0,1-2.29,1.66h0c-.45.24-.88.52-1.33.76h0c-1.12.64-2.07,1.15-3.33,1.87,3.91.11,7.79,2.73,1.51,3.23-1.71.49,3.3,5.89-3.62,2.25,1,4.63-.81,4.07-3.43,1.24C130,235,121.49,247.73,129.18,256c-.39-3.91,1.73-9.35,5.39-10.27a17.29,17.29,0,0,0-3.17,6.94c1.7-3.14,4.35-6.61,7.76-6.9-2.89,3.63-10.25,11.2-3.71,14.88,5.51,1.78,6.35,1.41,10.17-2.38,1.2-.1,1.12.81,1.23,1.57-.8,2.69,4.37-1.64,5.57.07C152.76,260.93,151.7,261.57,151,262Z" transform="translate(-91.73 -214.82)"/><path class="cls-1" d="M176.89,274c-5.44,1.38-5.49,1.57-7.8,6.58-.4-.36-.76.5-1.28.67a14.25,14.25,0,0,1,.39-1.87,25.59,25.59,0,0,0-1.86,3.23c-.83-.14.58-2.58.72-3.46-.43.68-.53,1.14-1.2,1.07,0-.66.44-1,.37-1.75a38.29,38.29,0,0,1-12.08,7.61h0c-1.87.59-3.78,1.3-5.65,1.8,2.29-1.45,5-2.49,7.43-3.81a54.2,54.2,0,0,1-12,3.49c1.31-1.17,3.59-1.58,5.15-2.59-.84,0-1.49.59-2.29.62.84-1,2.7-1.19,3.66-2.08a10.47,10.47,0,0,0,2-.83c.68-.44.23-2-.45-.86l-.14-.07c.35-5,1.65-9.85,2.4-14.7a.08.08,0,0,0,0-.1c.43-.4.25-1,.48-1.53-1.06.06-4.67,2.77-3.49.45-.27-.38-.76-.08-1.15-.06a6,6,0,0,0,.21-.93c-.62.56.2.61,0,0,5.82-3.35,9.59-9.19,12.78-14.95.11-.6,1-1.43-.07-1.62-2.4-1.44-2.31-5.53-.08-7.07-.57,4.49,2.51,5.7,5.67,2.65,3.65-2.28,5.29-8.38,9.21-9.4.89,1.22-.21,2.61-.47,4C174.68,243,171,247.6,165.7,249a61.73,61.73,0,0,1-8,12.22c10.46-3.61,15,2.33,5.1,9-.66.3-.52.94.2.76,1.71.28,3.33.67,4.5,2.15.33.41,1,.06,1.16-.39.71-1.2,6.55-15.43,6.78-11.58.23-.84,1.32-1.94,2-1,3.26-.06,2.31,6.81,3.25,9.19.08.46.21.69.68.53.73-.26,1.28.55,2,.3.4.31-1,1.05-1.25,1.4.2.21.47.07.84.14-.5.55-1.14.53-1.62,1,.16,3.53,1.15,7.32,1.19,11a.05.05,0,0,0-.07,0c-.4-.25-.13-.82-.53-1.08l-.13.4c-.3-.52-.1-1.12-.36-1.41a28.82,28.82,0,0,1-.08,3.58l-.25-.09c-.09-.5.09-1.17-.61-1.34-.07-.44-.1-.88-.15-1.32,0,.39-.64.52-.38,1-.44.2-.18-.31-.38-.36C178.71,281.48,178.36,273.78,176.89,274Zm-19.29-3.74c5.66-3.6,11.35-9.78,0-6-.36.11.16.24.1.43s0,.32.21.11c1.44-.07-.47,4.39-.42,5.52Zm-2.41,11c1.56-1,11.86-5.59,7.72-7.24-7.62-1.58-6.46,1.24-7.84,7.29Zm20.65-13.63-2,3.79C177.24,270.68,176.67,270.73,175.84,267.61Zm-19.57-2.75c-.38,0-.67.22-.35.48Z" transform="translate(-91.73 -214.82)"/><path class="cls-2" d="M110.47,260.07c.87-.06,2-.36,2.65.4a9.9,9.9,0,0,0-5.87,2.06,28.67,28.67,0,0,1,3.12-1.37h0a6.22,6.22,0,0,1,3.62-.27c-.14-.19-.39-.26-.58-.39l0-.2c3.92,1,3,5.73.74,7.94l-.16,0a19.14,19.14,0,0,0,.58-2.55h0a14.62,14.62,0,0,1-2.64,3.82l.47-1c-1.38.16-.24-.73-.44-1s-.59.72-.75-.12c-.59.57-1,1.83-1.73,2,.27-1.31,1.25-2.66,1.54-4.19-14,5.64-16.4,34.13.39,12.34-2.39.56-5,1.72-7.35,1.45.18-.36.62-.41,1-.63-8.9-.54,12.57-7.29,14.27-7.71.74,0,.13.68.43.94,0,0,0,.28,0,.28.85.18.15.48,0,.68-4.71,7.11-6.18,15.11-8.88,23.06,0-2-.37-3.56,0-5.37l-.14,0a9.65,9.65,0,0,1-1.29,3.56c-.35-.37.16-1.61-.55-1.88-.32.05,0,.52-.29.73a13.51,13.51,0,0,1,.06-4.87C102,294,91.39,291,92.49,280.89,94,271.57,101.55,263.07,110.47,260.07ZM103.59,265c-.24.3-.58.58-.77.81.17-.23.54-.26.57-.57.2,0,.26-.05.19-.24h.07S103.61,265,103.59,265Zm3-2,.52-.29-.06-.11a4.77,4.77,0,0,0-.72.53Zm-.37.21c-.07,0-.11,0-.14.06S106.24,263.24,106.27,263.16Z" transform="translate(-91.73 -214.82)"/><path class="cls-3" d="M117.5,296.35c.83-2.42,1.31-5.18,2.9-7.21.83.39,0,1.21,0,2.17.38-.72.65-2.12,1-1.17.2-.67.65-.45,1.06-.84a.5.5,0,0,1,1,.24c2.43,1.37-.22,4.76-.54,6.9,1.12-.68,2.09-1.61,3.15-2.38h0c2.42-1.66,4.65-3.53,7.14-5.12h0c.82-.58,1.66-1.14,2.5-1.7.57.29.44-.63.91-.52l1.07-.67c.94-.14,2-1.7,2.84-1.45-2.48,1.63-4.68,3.64-7.28,5.58,2.82-1.32,5.2-3.41,8-4.78l0,.32,0,0c.62-.18,1.58-1.45,2.13-1-1.17,1.38-2.66,2.52-3.76,3.93.62-.23,1-1.08,1.69-.88-13.72,14.18-20.13,8.77-7.14,17h0a24.61,24.61,0,0,1,3.69,2.81l-.61-.05a40,40,0,0,1,4.14,4.06c-1.35-.73-3.68-2.2-5.28-3,.35.38.77.71,1.16,1.07-1.15.9-3.2-1-4.46-1.49l-.06.1c.73.45,1.46.88,2.17,1.37l-.07.17C118,303.21,123.32,297,117.44,313h-.15l.11-2.16c-.35,1.25-.49,1.91-.84,2.9l-.22-.35-.25,1.11-.34.19a24.06,24.06,0,0,1,.81-6.13,17.47,17.47,0,0,1-1.31,3.67.39.39,0,0,0-.25-.45c0-.2,0-.4,0-.6-.17.3-.31.61-.47.92a46.5,46.5,0,0,1,1.64-10.85h0c.09-.1,0-.28.13-.38C116.59,299.39,117.06,297.86,117.5,296.35Zm15.14-5.64c.08-.09.29-.08.25-.29.24,0,.37-.08.56-.48a8,8,0,0,1-1.11.88C132.49,290.92,132.54,290.76,132.64,290.71Zm-.7.32.08.07.24-.15,0-.08Z" transform="translate(-91.73 -214.82)"/><path class="cls-1" d="M133.35,284.3c0,.58.09,1.15.07,1.73-.65-.31-.5-1.17-1.06-1.53a12.68,12.68,0,0,0,.42,3.18h-.22c-.31-.8-.63-1.61-.91-2.46-.54-.16.33.95-.49.56-.43-.31-.69-.86-1.31-.9a6.65,6.65,0,0,1-.9-2.51l.42.32c-.07-.45-.66-2.62-.69-1.25h-.25c-.37-.85-2.2.9-3,1.05l0,0,0,0c-3.77,1.71-5.24,2-6.52,6.18-.14,0-.15.1-.1.22l-.15.25c-.41,0-.12-.45,0-.68l-.11-.05a6,6,0,0,1-.39.59c-.25,0,0-.23-.12-.32l.36-1.27-.15,0c-1.5,3.36-3.2,8.05-1.52.71-.56.21-.48.89-.84,1-.36-.16-.12-.55-.08-.83a12.33,12.33,0,0,1,1-3.93c.52-1.38-2-.15-.69-1.28,1.42-.42,1.63-1.68,2-2.84a105.59,105.59,0,0,1,5.22-13c.43-1.94.84-.5,1.49-1.35a.81.81,0,0,1,1.17-.25c.43.66,1.11.22,1.66.36l.47.89c1.16-2.2,2.39,6.47,3,7.37-.34,2.21,3.23-1.07,4.38-.32a.84.84,0,0,1-.52.7c.65-.22.93.88,1.63.41l.11.2-1.36,1.24c2.47-.43-1.37,2.06-2.14,2.16C131,279.83,133.39,282.42,133.35,284.3Zm-3.43.1c.05.1,0,.33.17.28.23-.22-.18-.62-.22-1A.53.53,0,0,0,129.92,284.4Zm-.12-.88-.24-.68C129.28,283.27,130,284.26,129.8,283.52Zm-6.93-4.31c4.51-2.19,4.39-1.39,2.6-6.24-1,2.15-2,4.14-2.73,6.26Z" transform="translate(-91.73 -214.82)"/><path class="cls-3" d="M153.59,296.23c-2.75,2.88-1.6,8.29-3.64,11.83a2.76,2.76,0,0,1,0-1.37l-.15,0a5,5,0,0,1-.9,2.59c-.13-.55.33-1.75-.3-1.61v-1.56c.12.57-.79-.06-1,.46-.95-5.71,3.64-9.88-4.08-6.07-2.59,1.49-.93,5.53-3.49,7.46-.06-.73-.62-1.2-.4-2-.47.25-1.22.74-1.33-.18-.27.16.16.67-.38.64-.45-.93.91-4.16-.49-3.7-.27.08-.62.2-.76-.24.05-.3-.42-.11-.62-.21l-.11-.22c.86-1-.92-.23-.56-1.22.21-.21.42-.42.3-.76a26.89,26.89,0,0,1,2.78-1.54c1.31-2.51.51-6.48,2.63-8.65,1.2,1.07,1.5-1,2.78.09.6.06.34.78.82.9a35,35,0,0,1-1,5.35c6.24-2,4.29-.84,6.07-6.57.53-1.14,1.37.69,2-.35.24-.31.55,0,.82-.08.1.43.14.93.79.5.41.35-.07.81.34,1.13.49,1-1.68,4.2.6,3.21.18.69-.67.59-.81,1s-.6.38-.64.76C153.34,295.79,154.41,295.71,153.59,296.23Z" transform="translate(-91.73 -214.82)"/><path class="cls-3" d="M163.05,241.94l-.08-.68-.56.37c-2.61-1.65-2.23-5.45-.45-7.59.24,1-1.06,1.92-.73,3.1a12.68,12.68,0,0,1,2.84-5.4c.25.09.35-.71.68-.11l-.44.48c.9-.23.8-1.25,1.33-1.86-.24,0-.47.57-.48-.09,2.88-8.18,14.69-3.26,9.29,4.66h0a7.19,7.19,0,0,1-1.35,1.65l.21-.88C171.52,239.22,167.42,243.29,163.05,241.94Zm1.61-3.42c1.91-.66,5.82-5,5.89-6.54C168.68,234.24,166.73,236.39,164.66,238.52Z" transform="translate(-91.73 -214.82)"/><path class="cls-3" d="M153.08,300c-.57-.33.44-.64.2-1.11a7.71,7.71,0,0,1,2.16-1c1.14-.91,6.21-14.69,6.9-11.75l.07-.12a5.05,5.05,0,0,0,1.77-.65c.42.11.73,1.49,1,.52,2,1.86,1.4,5.73,2.2,8.33.35.61.8.09,1.2.1.43-.23.35.6.78.38H170a14.54,14.54,0,0,1-2.44,1.73c.37.24.89-.39,1,.06s-.58.38-.83.66c.08,1.88.73,3.79.52,5.73-.24.13,0,.3-.05.45a.09.09,0,0,0-.06.06l-.53-.82c-.21.52,0,1.72-.9.89v1h-.31c-3-6.37,0-7.65-8.1-3.9-.83.95-1.21,4-2.67,3.59-.38-.35-.47,0-.68.12,0-.66-.43-.56-.75-.36-2.58,1.12.21-2.48-.94-2.46,0,0,0-.05,0,0C153.34,300.86,154.11,300.15,153.08,300Zm7.28-3.59c4.26-.94,3.31-.86,2.37-4.72Z" transform="translate(-91.73 -214.82)"/><path class="cls-1" d="M148.8,273.85c.61-.13,1.24-.22,1.85-.33.51.56,1.17.22,1.77.35-.27.61-1.23,1-1.68,1.47a3.88,3.88,0,0,0,.7.06v.23c-.07,0-.19,0-.14.13-.65.29-1.3.55-1.95.83-1.1.22-.3.89-.33,1.37.13,1.25.86,3.24,0,4.15a4.44,4.44,0,0,1-.47-.92l-.06,0,.1.1c-.15.36.26.77-.12,1.1l-.17-.2a4.69,4.69,0,0,0-.12.75c-.22.47-.92-1-1.28-1.27-.09,2.46-1.08-1.57-1.32-2.25-.17-.89-.19-1.6-1.34-1.07-3.31,1.15-5.31,1.37-6.54,5-.27.28-.37.89-.74.86-.74-.09-.66.54-1.1.79a3.83,3.83,0,0,1,.35-1.78c-.61-.16-.87,1.24-1.57.22l-.52.75c-.48-1.23,1.65-2.88.2-3.37.7,0,.6-.77,1.07-1,.09,0,.32-.4-.11-.65s-.95-.82,0-1.09c3-1.81,3.36-6.1,5.39-8.84.72-1.05,1.21-2.85,2.26-3.41a1.17,1.17,0,0,0,1.64,0c.58-.68.93.8,1.27.26C147.93,265.49,147.2,274.32,148.8,273.85Zm-7.31,2c3.48-.93,3-.61,2.1-4Z" transform="translate(-91.73 -214.82)"/><path class="cls-2" d="M143,260.86c-1.82,1.73-5.3.42-7.52-.18-3.72-1.34-2.82-6.52-.76-8.84,2.88-6.41,23.05-8.12,14.42-1.27C144.65,251.33,137.74,256.66,143,260.86Z" transform="translate(-91.73 -214.82)"/><path class="cls-2" d="M148.63,307.65c.62-.14.17,1.06.3,1.61a4.78,4.78,0,0,0,.78-1.75h.14l.1.55.39-.65a126.59,126.59,0,0,1,25-1.72v.19H171.2v.3a49.35,49.35,0,0,1,6.88.24v.15c-3.14.24-6.07.63-9.2.67v.1l.3.09c-9.13,1.24-18.7,3.06-27.59,5.07,3.14,2.48,2.22,1.9-.52.7a1.4,1.4,0,0,1,.45.26c-4.87-1.31-10.66,2.12-15.87,2.72a2.23,2.23,0,0,1,.56-.36c-5.94,1.41-3,.18.53-1.08a17.2,17.2,0,0,1-2.77.37,7.7,7.7,0,0,1,1.65-.8,31,31,0,0,1-4.66.82c.86-.34,1.32-.46,2-.74a.41.41,0,0,0,.45-.17c.09,0,.18,0,0,0,.18,0-.33,0-.46,0s0-.06,0-.09c.36-.15.75-.25,1.07-.42,1.1-.38,2.21-.74,3.32-1.07,3-.89,6.24-1.5,9.1-2.57a.63.63,0,0,0,.56-.38,15.56,15.56,0,0,1,4.12,2l-1.86-2.11Z" transform="translate(-91.73 -214.82)"/><path class="cls-1" d="M188.87,276.39c-.12.4-.1.94-.5,1.15-.39-.54.86-2-.29-1.69l-.05-.57c-.45,1.63-.62,2.91-1.63,4.19h-.16c0-.48,0-.56.11-1.2l-.29.64c-.14,0-.1.35-.34.19l-.11-1.53c-.29.91-.45,1.49-1.32,1.81,0-.23.21-.57-.3-.44,0-4.37.49-9.8,2.22-13.8,1-.27,2.15-1.29,3-.23.19.17.15.69.63.41.52.54.17,1.38.27,2.11.27-.14,0-.52.41-.51A66.26,66.26,0,0,1,188.87,276.39Zm0-2.72a2.69,2.69,0,0,0-.28,1.85ZM184.37,278h-.18c0,.21-.19.66.1.67Zm4.52-4.71v0h0Z" transform="translate(-91.73 -214.82)"/><path class="cls-3" d="M173.07,302.35c-.13.15-.17,0-.25-.06l.08-.55-.42.52c-.51-.44.09-1.06-.24-1.54l-.67,1.63q-.19-.59-.39-1.14c-.32.11.07.79-.55.62h0c.23-3.51-1.19-17.41,4.93-13.61.38.53-.37,1.79.63,1.6a93.75,93.75,0,0,1-1.25,10.57.09.09,0,0,0-.05.08c-.38-.29.08-.72-.17-1.09-.32.47-.11,1-.31,1.42-.41-.77.28-2.12.33-3.07a23.51,23.51,0,0,0-1.17,3.77h0C173,301.53,173.24,302.07,173.07,302.35Zm2.8-12.26c-.06.09,0,.07,0,.12Z" transform="translate(-91.73 -214.82)"/><path class="cls-1" d="M98.24,295.39a23.43,23.43,0,0,1,9.08.75h-1.23c2.52.62,5.23.86,7.44,2.28-1.8.74-4.31.39-6.36.77l0,.17h1.14v.1c-4,.37-8.73,1.56-12.48.51.72-.32,2,0,2.46-.52-.34-.3-1,.32-1.48-.1,1.21-.49,2.48-.28,3.6-.63-1.25,0-2.58-.07-3.83,0a1.53,1.53,0,0,1-.38-.42.06.06,0,0,0,0-.08l2.84-.61H97.06l.74-.26c-2-.14-4.26.42-6.07.21,3.47-1.51,8.17-1.5,12.12-1.63a35.54,35.54,0,0,0-5.83-.29c0-.07-.1-.14-.07-.22Z" transform="translate(-91.73 -214.82)"/><path class="cls-1" d="M122.16,220.24a4.87,4.87,0,0,1,1.79-2.66l-.57.88c1.43-1.52,3.57-4,5.67-3.59l-.27.09c1.75-.14,4.52,0,5,2.19-3.7.35-5.79-1.66-8.57,3.09-1.31,1.39-1.41,3.5-2.44,4.9C120.17,225.34,121.94,221.8,122.16,220.24Z" transform="translate(-91.73 -214.82)"/><path class="cls-2" d="M178.51,248.66a1.65,1.65,0,0,1,.18,1.88,25.47,25.47,0,0,1-6.49,6.89c-1.86-1.82-1.82-11.82,1.41-6.51C175,249.78,176.6,247.66,178.51,248.66Zm-5.74,6.77c1.37-1.85,3.89-3.44,4.54-5.62-1.79.22-3.2,2.38-4.06,3.92C173,254.25,172.05,254.58,172.77,255.43Zm-.53-1.7c.62-1.67.45-2.11,0-2.94A4.77,4.77,0,0,0,172.24,253.73Z" transform="translate(-91.73 -214.82)"/><path class="cls-2" d="M188.53,287.81c.39-.08.81-.16,1.23-.21-.23.37-.71.24-1.11.57,6.14-1.31,3.67,2-.38,2.78a44.88,44.88,0,0,1-9.63,1.06c1.11-1.33,3.44-1.87,5-2.74h0A31.49,31.49,0,0,1,188.53,287.81Z" transform="translate(-91.73 -214.82)"/><path class="cls-1" d="M114.11,251.6c-1.17,3.37-6.32.1-5.34-2.7C110.2,245.84,114.9,248.93,114.11,251.6Z" transform="translate(-91.73 -214.82)"/><path class="cls-1" d="M130.44,222l-.61-.07c.35-.42.91-.23,1.26-.56-1.1-.16-1.72.09-3.07,1.23,1.68-5.5,9.73.17,6.91,1.2-2.57-.94-4.24,1.79-6.3,1.68C128.36,224.34,129.43,222.89,130.44,222Z" transform="translate(-91.73 -214.82)"/><path class="cls-1" d="M185.41,262.87c-.52-1.85.34-5.24,2.77-4.11a1.78,1.78,0,0,1,2.34.74c.65,3.8-2.07,2.52-3.9,3.84A1,1,0,0,1,185.41,262.87Z" transform="translate(-91.73 -214.82)"/><path class="cls-3" d="M171.54,282.54c1.05-1.75,1.11-.66,2.48-.89,2-.76,2.89,1.63,2,3.17-.52.53-1.48,1.22-2.23.87s-1.33.86-2.09.7C170.57,285.42,171.17,283.79,171.54,282.54Z" transform="translate(-91.73 -214.82)"/><path class="cls-1" d="M167.42,224c-1.69.87-3.55,1.12-3.06,3.3a5.12,5.12,0,0,1-1.2,2.16c-.64.19-.49.68-.43,1.13a14.12,14.12,0,0,1-2.07,3,3.82,3.82,0,0,1,1.21-3.31c.33-.23.83-.37.43-.93-.73-1.79.62-3.07,1.79-4.15,0-1.23,1.32-2.18,2.47-2.76C168.07,221.68,169.15,223.33,167.42,224Z" transform="translate(-91.73 -214.82)"/><path class="cls-1" d="M185.58,299c-1.4-.77-2.72-1.69-4.08-2.52h0c-4.17-2.79,5-.45,6.11.6.82.44,1.26,1.62.21,2.1C187,299.51,186.35,298.75,185.58,299Z" transform="translate(-91.73 -214.82)"/><path class="cls-1" d="M140.25,220.14c-.14.43-.59.44-.88.65-3.4.44-2.69-6,.33-3.91.37.27.37.87.86.88C141.23,218.62,140.25,219.25,140.25,220.14Z" transform="translate(-91.73 -214.82)"/><path class="cls-1" d="M106.48,303.51c1.22-.49,2.58-1.5,3.89-1.33-.81,1.41-6,6.91-6.15,3.13l0,0a5.32,5.32,0,0,1,2.07-1.66h0Z" transform="translate(-91.73 -214.82)"/><path class="cls-2" d="M180.94,236.26c.83-2.46,2.63-2.1,1.61.44a13.5,13.5,0,0,1-4.49,4.77v0h0C178.81,239.7,180.2,238.1,180.94,236.26Z" transform="translate(-91.73 -214.82)"/><path class="cls-1" d="M118.41,257c.43.69,1,1.32,1.42,2,0,.3.75.39.24.84C115.6,258.81,113.23,250.94,118.41,257Z" transform="translate(-91.73 -214.82)"/><path class="cls-1" d="M178.38,230.11a6.43,6.43,0,0,1-1.18,2.35c-.47-.22,0-.6-.16-.87a6.63,6.63,0,0,0-1.13-5.76c.16-.34-.86-.36-.23-.82C178,225.35,178.72,228.13,178.38,230.11Z" transform="translate(-91.73 -214.82)"/><path class="cls-1" d="M182.15,254.77c1.41-.64,2.12,1.66.65,2S181.15,255.36,182.15,254.77Z" transform="translate(-91.73 -214.82)"/><path class="cls-2" d="M155,225.38c-.6-.39-.11-1.57.07-2.17C156.77,221.66,156.2,224.91,155,225.38Z" transform="translate(-91.73 -214.82)"/><path class="cls-2" d="M153,229a.77.77,0,0,1,1.53.22c-.13.84-1.24,1.44-1.6.43Z" transform="translate(-91.73 -214.82)"/><path class="cls-2" d="M106,254c.61.32.95,1.36,0,1.58C104.85,255.74,104.77,253.73,106,254Z" transform="translate(-91.73 -214.82)"/><path class="cls-2" d="M152.09,233.3c.79.34.59,1.18,0,1.51C151,234.93,151.2,233.32,152.09,233.3Z" transform="translate(-91.73 -214.82)"/><path class="cls-1" d="M130.38,266.3a6.8,6.8,0,0,1-2.53-1.76,8.46,8.46,0,0,1,2.93,1.45C131.13,266.73,130.29,265.9,130.38,266.3Z" transform="translate(-91.73 -214.82)"/><path class="cls-1" d="M113.42,256.63c-.36.49-.85.18-1.15-.19C111.8,255.11,113.91,255.55,113.42,256.63Z" transform="translate(-91.73 -214.82)"/><path class="cls-1" d="M115.52,260.25c-.48.13-.5-.38-.77-.54l.07-.64C115.5,258.93,116.09,259.82,115.52,260.25Z" transform="translate(-91.73 -214.82)"/><path class="cls-2" d="M101.48,249.14a.54.54,0,1,1-1.07-.09A.54.54,0,0,1,101.48,249.14Z" transform="translate(-91.73 -214.82)"/><path class="cls-2" d="M98.32,260.38c.13-.58.94-.34,1,.15C99.3,261.26,98.23,261,98.32,260.38Z" transform="translate(-91.73 -214.82)"/><path class="cls-3" d="M110,221.54a7.59,7.59,0,0,1-.51,2.58l-.18-.26a14.39,14.39,0,0,1,.64-2.27A.06.06,0,0,0,110,221.54Z" transform="translate(-91.73 -214.82)"/><path class="cls-3" d="M187.91,277.86l-.17,0a11.11,11.11,0,0,1,.34-2h.19C188.16,276.53,188.07,277.2,187.91,277.86Z" transform="translate(-91.73 -214.82)"/><path class="cls-1" d="M117.6,261.45c-.32-.31-.35-.73.16-.83C118.17,260.87,118.33,261.93,117.6,261.45Z" transform="translate(-91.73 -214.82)"/><path class="cls-3" d="M119,238.43c-.47.42-.4,1.16-.91,1.56.1-.35,1.08-2.94,1-1.87C119,238.21,119,238.33,119,238.43Z" transform="translate(-91.73 -214.82)"/><path class="cls-2" d="M97.42,261c.49.06.58.83,0,.81A.41.41,0,0,1,97.42,261Z" transform="translate(-91.73 -214.82)"/><path class="cls-3" d="M96.58,295.57a5.19,5.19,0,0,1,1.36-.09,1.42,1.42,0,0,0,.08.18c-.59,0-1.32.35-1.82,0Z" transform="translate(-91.73 -214.82)"/><path class="cls-1" d="M109,254.23c.37.23.47.49.09.8C108.65,254.81,108.55,254.55,109,254.23Z" transform="translate(-91.73 -214.82)"/><path class="cls-2" d="M110.07,258.25c-.06.49-.68.32-.64-.12S110.07,257.89,110.07,258.25Z" transform="translate(-91.73 -214.82)"/><path class="cls-3" d="M186.24,279.47h.16C186.47,281.27,185.63,281.2,186.24,279.47Z" transform="translate(-91.73 -214.82)"/><path class="cls-3" d="M172.74,303.63c0-.3.11-.6.17-.91C173.73,303.19,172.89,303.35,172.74,303.63Z" transform="translate(-91.73 -214.82)"/><path class="cls-3" d="M93.09,296.68c0,.41-.63.1-.64.52l-.23,0C92.16,296.47,92.76,296.8,93.09,296.68Z" transform="translate(-91.73 -214.82)"/><path class="cls-2" d="M184.65,247.91c-.29.22-.45.08-.69-.12C184.25,247.58,184.5,247.5,184.65,247.91Z" transform="translate(-91.73 -214.82)"/><path class="cls-3" d="M128.51,281.61l-.08-.17h.25a4.15,4.15,0,0,1,.26,1.08h-.09C128.77,282.2,128.5,281.93,128.51,281.61Z" transform="translate(-91.73 -214.82)"/><path class="cls-3" d="M130.25,286c-.22-.83.3-.39.36.15C130.42,286.27,130.35,286.11,130.25,286Z" transform="translate(-91.73 -214.82)"/><path class="cls-2" d="M148.9,237c0,.31-.4.23-.44,0S148.91,236.72,148.9,237Z" transform="translate(-91.73 -214.82)"/><path class="cls-3" d="M109.38,224.25h0Z" transform="translate(-91.73 -214.82)"/><path class="cls-3" d="M97.84,299.65a1.8,1.8,0,0,1,0-.22C98.5,299.16,98.48,299.77,97.84,299.65Z" transform="translate(-91.73 -214.82)"/></svg>